<?xml version="1.0" encoding="UTF-8"?>
<svg width="16" height="16" xmlns="http://www.w3.org/2000/svg" xmlns:svg="http://www.w3.org/2000/svg">
 <!-- Created with SVG-edit - http://svg-edit.googlecode.com/ -->
 <title>slack</title>
 <g>
  <title>Layer 1</title>
  <g stroke="null" id="svg_1">
   <path id="svg_2" fill="#70CADB" d="m1.800143,8.557488c-0.568819,0.004348 -1.050669,-0.334624 -1.228335,-0.863686a1.415318,1.415318 0 0 1 -0.018429,-0.060361c-0.19361,-0.67753 0.181807,-1.386328 0.854678,-1.613276l10.792448,-3.615739a1.462737,1.462737 0 0 1 0.394156,-0.057565c0.583935,-0.004556 1.079038,0.341871 1.261052,0.882115l0.016151,0.052181c0.201892,0.705692 -0.299733,1.335596 -0.900751,1.537489c-0.000414,0.000311 -0.109747,0.037272 -10.732605,3.664193a1.396682,1.396682 0 0 1 -0.438366,0.074648z"/>
   <path stroke="null" id="svg_3" fill="#E01765" d="m3.599057,13.86519c-0.573271,0.004141 -1.056778,-0.330068 -1.232372,-0.851572a1.381152,1.381152 0 0 1 -0.018636,-0.059947c-0.196302,-0.685606 0.178701,-1.401859 0.85385,-1.629117l10.792862,-3.64887c0.139461,-0.046591 0.283478,-0.070404 0.428323,-0.071749c0.574824,-0.004348 1.079866,0.346841 1.258049,0.874246l0.016566,0.054873c0.104259,0.364545 0.042656,0.774232 -0.16462,1.09757c-0.154474,0.240407 -0.641708,0.452032 -0.641708,0.452032l-10.833861,3.704365a1.486343,1.486343 0 0 1 -0.458451,0.078376l0,-0.000207z"/>
   <path stroke="null" id="svg_4" fill="#E8A723" d="m12.583376,13.888278a1.325036,1.325036 0 0 1 -1.268817,-0.903132l-3.601969,-10.699266l-0.018015,-0.06005c-0.195163,-0.682293 0.18015,-1.39399 0.852815,-1.620731c0.134595,-0.045245 0.273746,-0.068851 0.413828,-0.070093c0.208105,-0.001553 0.409479,0.045348 0.599155,0.139047a1.322344,1.322344 0 0 1 0.667695,0.765328l3.601658,10.698335l0.010457,0.034373c0.202307,0.708384 -0.172178,1.420495 -0.844842,1.647236a1.33922,1.33922 0 0 1 -0.411964,0.068954z"/>
   <path id="svg_5" fill="#3EB890" d="m7.229291,15.690401a1.325554,1.325554 0 0 1 -1.269334,-0.903857l-3.601037,-10.698852a1.324932,1.324932 0 0 1 0.833557,-1.680367a1.341809,1.341809 0 0 1 0.412585,-0.069161a1.324829,1.324829 0 0 1 1.269024,0.903132l3.601141,10.699266a1.324932,1.324932 0 0 1 -0.834489,1.680677a1.333526,1.333526 0 0 1 -0.411861,0.069058l0.000414,0l0,0.000104z"/>
   <path stroke="null" id="svg_6" fill="#CC2027" d="m10.807654,11.478821l2.511543,-0.858716l-0.821029,-2.43824l-2.514442,0.849709l0.823928,2.447248z"/>
   <path id="svg_7" fill="#361238" d="m5.461852,13.306621l2.511335,-0.858613l-0.827242,-2.456876l-2.51382,0.850019l0.829726,2.46547z"/>
   <path stroke="null" id="svg_8" fill="#65863A" d="m9.019612,6.167909l2.51175,-0.857577l-0.811401,-2.409768l-2.516409,0.843082l0.81606,2.424263z"/>
   <path stroke="null" id="svg_9" fill="#1A937D" d="m3.673188,7.993225l2.51175,-0.857577l-0.82134,-2.440518l-2.516409,0.842979l0.825999,2.455116z"/>
  </g>
 </g>
</svg>